<svg width="21" height="21" viewBox="0 0 21 21" fill="none" xmlns="http://www.w3.org/2000/svg">
<g id="Group 9">
<path id="Vector" d="M5.34643 7.38296L4.55425 7.59957C3.63005 7.85228 2.87384 8.51674 2.50435 9.40076C1.5418 11.7037 1.5418 14.2963 2.50435 16.5992C2.87384 17.4833 3.63005 18.1477 4.55425 18.4004L5.34643 18.617C8.6575 19.5224 12.1509 19.5224 15.4619 18.617L16.2541 18.4004C17.1783 18.1477 17.9345 17.4833 18.304 16.5992C19.2666 14.2963 19.2666 11.7037 18.304 9.40076C17.9345 8.51674 17.1783 7.85228 16.2541 7.59957L15.4619 7.38296C12.1509 6.47761 8.6575 6.47761 5.34643 7.38296Z" stroke="white" stroke-width="2" stroke-linejoin="round"/>
<path id="Vector_2" d="M10.4042 11L10.4042 15" stroke="white" stroke-width="2" stroke-linejoin="round"/>
<path id="Vector_3" d="M7.26947 7V3.42451C7.26947 2.57601 7.81824 1.82494 8.6266 1.56707V1.56707C9.78296 1.19818 11.0254 1.19818 12.1818 1.56707V1.56707C12.9902 1.82494 13.5389 2.57601 13.5389 3.42451V7" stroke="white" stroke-width="2" stroke-linejoin="round"/>
</g>
</svg>
