<svg width="22" height="17" viewBox="0 0 22 17" fill="none" xmlns="http://www.w3.org/2000/svg">
<g id="Group 8">
<path id="Vector" d="M2.53691 4.15773C2.8319 3.42025 3.4238 2.84107 4.16752 2.56218L4.31227 2.5079C8.62415 0.890943 13.3758 0.890943 17.6877 2.5079L17.8325 2.56218C18.5762 2.84107 19.1681 3.42025 19.4631 4.15773V4.15773C20.4555 6.63864 20.5363 9.39099 19.6914 11.9259L19.5451 12.3648C19.2056 13.3832 18.3693 14.1577 17.3278 14.4181L16.8567 14.5358C13.0114 15.4972 8.9886 15.4972 5.14333 14.5358L4.67223 14.4181C3.63071 14.1577 2.79441 13.3832 2.45492 12.3648L2.30863 11.9259C1.46366 9.39099 1.54454 6.63864 2.53691 4.15773V4.15773Z" stroke="white" stroke-width="2" stroke-linejoin="round"/>
<path id="Vector_2" d="M3 3L6.36762 6.36762C6.78142 6.78142 7.29989 7.07497 7.86762 7.2169V7.2169C9.92423 7.73106 12.0758 7.73106 14.1324 7.2169V7.2169C14.7001 7.07497 15.2186 6.78142 15.6324 6.36762L19 3" stroke="white" stroke-width="2" stroke-linejoin="round"/>
</g>
</svg>
