<svg width="20" height="20" viewBox="0 0 20 20" fill="none" xmlns="http://www.w3.org/2000/svg">
<g id="Solid warning">
<path id="Vector" fill-rule="evenodd" clip-rule="evenodd" d="M12.8605 3.35107C11.2548 1.83496 8.74515 1.83496 7.13945 3.35107C7.09583 3.39226 7.04794 3.44015 6.97758 3.51052L6.09469 4.39341C3.79454 6.69355 2.19038 9.59625 1.46671 12.7676C1.02617 14.6982 2.2392 16.6191 4.17175 17.0511L5.06415 17.2505C5.4538 17.3376 5.66125 17.384 5.86808 17.4259C8.59506 17.9777 11.4049 17.9777 14.1319 17.4259C14.3387 17.384 14.5462 17.3376 14.9358 17.2505L15.8282 17.0511C17.7608 16.6191 18.9738 14.6982 18.5333 12.7676C17.8096 9.59625 16.2054 6.69355 13.9053 4.3934L13.0225 3.51057C12.9521 3.4402 12.9042 3.39227 12.8605 3.35107ZM9.16667 11.6667V5.83337H10.8333V11.6667H9.16667ZM9.375 12.8125C9.23977 12.8802 9.13011 12.9898 9.0625 13.125C8.86578 13.5185 8.86578 13.9816 9.0625 14.375C9.13011 14.5103 9.23977 14.6199 9.375 14.6875C9.76845 14.8843 10.2316 14.8843 10.625 14.6875C10.7602 14.6199 10.8699 14.5103 10.9375 14.375C11.1342 13.9816 11.1342 13.5185 10.9375 13.125C10.8699 12.9898 10.7602 12.8802 10.625 12.8125C10.2316 12.6158 9.76845 12.6158 9.375 12.8125Z" fill="#EF4444"/>
</g>
</svg>
